<?xml version="1.0" encoding="UTF-8"?>
<!-- Created with Inkscape (http://www.inkscape.org/) -->
<svg width="256" height="256" version="1.1" viewBox="0 0 256 256" xmlns="http://www.w3.org/2000/svg"><g stroke="#680071"><path d="m77.011 14.144a72.277 72.277 0 0 0-50.982 21.056l-0.0056-0.0056-0.12033 0.11845a72.109 72.109 0 0 0 2e-6 101.98l0.11845 0.11845-0.11845 0.11845 51.108 51.108-0.11845 0.12032 51.108 51.108 102.1-102.1a72.109 72.109 0 0 0-1e-5 -101.98l-0.12033-0.11844 0.12033-0.12033a72.277 72.277 0 0 0-102.09-0.11095l-7e-3 -0.0076 0.11845-0.12033a72.277 72.277 0 0 0-51.108-21.168z" fill="#bf00d1" stroke-linecap="round" stroke-width="9.6263" style="paint-order:stroke fill markers"/><text transform="matrix(13.825 0 0 13.825 -1710.9 -1367.5)" x="132.93607" y="111.72287" fill="#ff95f2" font-family="'Comic Sans MS'" stroke-linejoin="round" stroke-width=".30487" text-align="center" text-anchor="middle" style="inline-size:9.87213;line-height:0.8;paint-order:stroke fill markers;white-space:pre" xml:space="preserve"><tspan x="132.93607" y="111.72287"><tspan font-size="12px" font-weight="bold">C</tspan></tspan></text></g></svg>
